<svg width="100" height="108" viewBox="0 0 100 108" fill="none" xmlns="http://www.w3.org/2000/svg">
<path fill-rule="evenodd" clip-rule="evenodd" d="M63.9205 47.9634C71.1815 43.3517 76 35.2386 76 26C76 11.6406 64.3594 0 50 0C35.6406 0 24 11.6406 24 26C24 35.2386 28.8185 43.3517 36.0795 47.9634C15.2386 53.9923 0 73.2166 0 96C0 111.958 7.47583 107.969 19.1163 101.759C27.619 97.2221 38.3437 91.5 50 91.5C61.6563 91.5 72.381 97.2221 80.8837 101.759C92.5242 107.969 100 111.958 100 96C100 73.2166 84.7614 53.9923 63.9205 47.9634Z" fill="#767B8C"/>
</svg>
